HIERARCHY
ROOT pelvis
{
  OFFSET 0 100 0
  CHANNELS 6 Xposition Yposition Zposition Zrotation Xrotation Yrotation
  JOINT pelvis_right_femur
  {
    OFFSET -10.78128 -3.44521 -0.5502486
    CHANNELS 3 Zrotation Xrotation Yrotation
    JOINT right_femur_tibia
    {
      OFFSET -0.8047443 -44.0398 -0.1307829
      CHANNELS 3 Zrotation Xrotation Yrotation
      JOINT right_tibia_foot
      {
        OFFSET 3.006224 -47.83518 -5
        CHANNELS 3 Zrotation Xrotation Yrotation
        End Site
        {
          OFFSET 0 -5 15
        }
      }
    }
  }
  JOINT pelvis_left_femur
  {
    OFFSET 10.78128 -3.44521 -0.5502486
    CHANNELS 3 Zrotation Xrotation Yrotation
    JOINT left_femur_tibia
    {
      OFFSET 0.8047443 -44.0398 -0.1307829
      CHANNELS 3 Zrotation Xrotation Yrotation
      JOINT left_tibia_foot
      {
        OFFSET -4.370144 -48.10324 -4.275266
        CHANNELS 3 Zrotation Xrotation Yrotation
        End Site
        {
          OFFSET 0 -5 15
        }
      }
    }
  }
  JOINT pelvis_spine1
  {
    OFFSET 0 6.468898 -3.129235
    CHANNELS 3 Zrotation Xrotation Yrotation
    JOINT spine1
    {
      OFFSET 0 23.15396 4.99043
      CHANNELS 3 Zrotation Xrotation Yrotation
      JOINT spine2
      {
        OFFSET 0 20.79997 -5.064912
        CHANNELS 3 Zrotation Xrotation Yrotation
        JOINT neck
        {
          OFFSET 0 14.38658 9.616178
          CHANNELS 3 Zrotation Xrotation Yrotation
          End Site
          {
            OFFSET 0 20 0
          }
        }
      }
      JOINT right_manubrium
      {
        OFFSET -5.722621 16.35077 3.967754
        CHANNELS 3 Zrotation Xrotation Yrotation
        JOINT right_clavicle
        {
          OFFSET -13.16364 1.694482 -4.693211
          CHANNELS 3 Zrotation Xrotation Yrotation
          JOINT right_humerus
          {
            OFFSET -28.5034 -0.3100689 -2.792744
            CHANNELS 3 Zrotation Xrotation Yrotation
            JOINT right_radius
            {
              OFFSET -25.15693 0.02248979 -1.271978
              CHANNELS 3 Zrotation Xrotation Yrotation
              End Site
              {
                OFFSET -15 0 0
              }
            }
          }
        }
      }
      JOINT left_manubrium
      {
        OFFSET 5.722621 16.35077 3.967754
        CHANNELS 3 Zrotation Xrotation Yrotation
        JOINT left_clavicle
        {
          OFFSET 13.16364 1.694482 -4.693211
          CHANNELS 3 Zrotation Xrotation Yrotation
          JOINT left_humerus
          {
            OFFSET 29.39168 -1.063119 -2.237045
            CHANNELS 3 Zrotation Xrotation Yrotation
            JOINT left_radius
            {
              OFFSET 24.59957 -0.9528479 0.9047498
              CHANNELS 3 Zrotation Xrotation Yrotation
              End Site
              {
                OFFSET 15 -0 -0
              }
            }
          }
        }
      }
    }
  }
}
MOTION
Frames: 11
Frame Time: 0.0416666666667
-663.6251 152.3702 557.2577 10.07992 5.113857 122.8618 5.29479 8.218268 -3.846433 -0 15.77941 -0 -7.867534 -1.485466 1.649901 1.914982 -12.28594 -10.27412 -0 19.59803 -0 -2.045155 -6.330939 16.20661 2.956819 -4.384059 5.823631 -2.330172 17.88822 -3.149308 4.4673 21.74446 2.099589 0.5198809 -18.67916 7.487668 -1.772808 -29.43149 12.54665 89.82875 8.184288 -8.517553 -0 0 24.04222 -37.00141 22.87653 25.32907 3.345817 -21.28842 -9.769471 -96.78097 20.65271 31.12619 0 0 -13.33749 -1.810443 21.04465 14.65991
-659.2834 152.2723 553.1012 10.14037 4.991937 122.1754 5.29479 8.21827 -3.846433 -0 15.77941 -0 -7.867534 -1.485468 1.649901 1.914983 -12.28594 -10.27412 -0 19.59803 -0 -2.045155 -6.330938 16.20661 2.956819 -4.384059 5.823632 -2.330172 17.88822 -3.149309 4.4673 21.74446 2.099589 0.5198806 -18.67916 7.487668 -1.772808 -29.43149 12.54665 89.82875 8.184288 -8.517553 -0 0 24.04222 -37.00141 22.87653 25.32907 3.345817 -21.28842 -9.76947 -96.78097 20.65271 31.12619 0 0 -13.33749 -1.810443 21.04465 14.65991
-654.8917 152.1744 548.9977 10.19935 4.869304 121.4892 5.29479 8.218271 -3.846432 -0 15.77941 -0 -7.867534 -1.48547 1.6499 1.914983 -12.28594 -10.27412 -0 19.59802 -0 -2.045155 -6.330937 16.20661 2.956819 -4.384059 5.823632 -2.330171 17.88822 -3.149309 4.4673 21.74446 2.099589 0.5198803 -18.67916 7.487668 -1.772808 -29.43149 12.54665 89.82875 8.184288 -8.517552 -0 0 24.04222 -37.00141 22.87653 25.32907 3.345817 -21.28842 -9.76947 -96.78097 20.65271 31.12619 0 0 -13.33749 -1.810443 21.04465 14.65991
-650.4505 152.0765 544.9476 10.25684 4.745976 120.8033 5.294791 8.218273 -3.846431 -0 15.77941 -0 -7.867533 -1.485471 1.6499 1.914983 -12.28594 -10.27412 -0 19.59802 -0 -2.045154 -6.330936 16.20661 2.956819 -4.384059 5.823632 -2.330171 17.88822 -3.149309 4.467299 21.74446 2.099589 0.5198801 -18.67916 7.487668 -1.772808 -29.43149 12.54665 89.82875 8.184289 -8.517552 -0 0 24.04222 -37.00141 22.87653 25.32907 3.345816 -21.28842 -9.76947 -96.78097 20.65271 31.1262 0 0 -13.33749 -1.810443 21.04465 14.65991
-645.9606 151.9786 540.9518 10.31283 4.621971 120.1177 5.294791 8.218275 -3.84643 -0 15.77941 -0 -7.867533 -1.485473 1.6499 1.914984 -12.28594 -10.27412 -0 19.59802 -0 -2.045154 -6.330935 16.20661 2.956819 -4.38406 5.823632 -2.330171 17.88822 -3.149309 4.467299 21.74446 2.099588 0.5198799 -18.67916 7.487668 -1.772808 -29.43149 12.54665 89.82875 8.18429 -8.517551 -0 0 24.04222 -37.00141 22.87653 25.32907 3.345816 -21.28842 -9.769469 -96.78097 20.65271 31.1262 0 0 -13.33749 -1.810443 21.04465 14.65991
-641.4226 151.8806 537.0106 10.36732 4.497308 119.4322 5.294791 8.218277 -3.846429 -0 15.77941 -0 -7.867533 -1.485475 1.649899 1.914984 -12.28594 -10.27412 -0 19.59802 -0 -2.045154 -6.330934 16.20661 2.956819 -4.38406 5.823633 -2.330171 17.88822 -3.149309 4.467299 21.74446 2.099588 0.5198797 -18.67916 7.487668 -1.772807 -29.4315 12.54665 89.82875 8.18429 -8.517551 -0 0 24.04222 -37.00141 22.87653 25.32907 3.345816 -21.28842 -9.769469 -96.78097 20.65271 31.1262 0 0 -13.33749 -1.810443 21.04465 14.65991
-636.8371 151.7827 533.1247 10.4203 4.372004 118.747 5.29479 8.218278 -3.846429 -0 15.77942 -0 -7.867533 -1.485477 1.649899 1.914984 -12.28594 -10.27412 -0 19.59802 -0 -2.045154 -6.330933 16.20661 2.956819 -4.38406 5.823633 -2.330171 17.88822 -3.149309 4.467299 21.74445 2.099588 0.5198796 -18.67916 7.487668 -1.772807 -29.4315 12.54665 89.82875 8.184291 -8.51755 -0 0 24.04222 -37.00141 22.87653 25.32907 3.345816 -21.28842 -9.769468 -96.78097 20.65271 31.1262 0 0 -13.33748 -1.810443 21.04465 14.65991
-632.2049 151.6848 529.2947 10.47176 4.246077 118.0621 5.29479 8.21828 -3.846428 -0 15.77942 -0 -7.867533 -1.485478 1.649899 1.914985 -12.28594 -10.27412 -0 19.59802 -0 -2.045154 -6.330933 16.20661 2.956819 -4.38406 5.823633 -2.330171 17.88822 -3.149309 4.4673 21.74445 2.099588 0.5198796 -18.67916 7.487668 -1.772807 -29.4315 12.54665 89.82875 8.184292 -8.517549 -0 0 24.04222 -37.0014 22.87653 25.32907 3.345816 -21.28842 -9.769468 -96.78097 20.65271 31.1262 0 0 -13.33748 -1.810443 21.04465 14.65991
-627.5266 151.5869 525.5212 10.52171 4.119546 117.3774 5.29479 8.218281 -3.846428 -0 15.77942 -0 -7.867533 -1.485479 1.649899 1.914985 -12.28594 -10.27412 -0 19.59802 -0 -2.045154 -6.330932 16.20661 2.956819 -4.38406 5.823633 -2.330171 17.88822 -3.149309 4.4673 21.74445 2.099588 0.5198796 -18.67916 7.487668 -1.772806 -29.4315 12.54665 89.82875 8.184293 -8.517548 -0 0 24.04222 -37.0014 22.87653 25.32907 3.345816 -21.28842 -9.769467 -96.78097 20.65271 31.1262 0 0 -13.33748 -1.810443 21.04465 14.65991
-622.8029 151.489 521.8046 10.57012 3.992429 116.6928 5.29479 8.218282 -3.846427 -0 15.77942 -0 -7.867533 -1.48548 1.649899 1.914985 -12.28594 -10.27412 -0 19.59802 -0 -2.045155 -6.330932 16.20661 2.956818 -4.38406 5.823633 -2.330171 17.88822 -3.149308 4.4673 21.74445 2.099588 0.5198796 -18.67916 7.487668 -1.772806 -29.43149 12.54664 89.82874 8.184294 -8.517548 -0 0 24.04223 -37.0014 22.87653 25.32907 3.345816 -21.28842 -9.769467 -96.78098 20.65271 31.1262 0 0 -13.33748 -1.810443 21.04465 14.65991
-618.0345 151.3911 518.1456 10.61701 3.864744 116.0085 5.294789 8.218283 -3.846427 -0 15.77942 -0 -7.867533 -1.48548 1.649899 1.914985 -12.28594 -10.27412 -0 19.59801 -0 -2.045155 -6.330932 16.20661 2.956818 -4.384059 5.823633 -2.330171 17.88822 -3.149308 4.4673 21.74445 2.099588 0.5198797 -18.67916 7.487669 -1.772806 -29.43149 12.54664 89.82874 8.184295 -8.517547 -0 0 24.04223 -37.0014 22.87653 25.32907 3.345816 -21.28842 -9.769467 -96.78098 20.65271 31.1262 0 0 -13.33748 -1.810442 21.04465 14.65991
